<?xml version="1.0" encoding="UTF-8" standalone="no"?>
<!-- Created with Inkscape (http://www.inkscape.org/) -->

<svg
   width="48"
   height="48"
   viewBox="0 0 48 48"
   version="1.1"
   id="svg1"
   inkscape:version="1.4.2 (ebf0e940, 2025-05-08)"
   sodipodi:docname="icon-component-number.svg"
   xmlns:inkscape="http://www.inkscape.org/namespaces/inkscape"
   xmlns:sodipodi="http://sodipodi.sourceforge.net/DTD/sodipodi-0.dtd"
   xmlns="http://www.w3.org/2000/svg"
   xmlns:svg="http://www.w3.org/2000/svg">
  <sodipodi:namedview
     id="namedview1"
     pagecolor="#ffffff"
     bordercolor="#000000"
     borderopacity="0.25"
     inkscape:showpageshadow="2"
     inkscape:pageopacity="0.0"
     inkscape:pagecheckerboard="0"
     inkscape:deskcolor="#d1d1d1"
     inkscape:document-units="px"
     inkscape:clip-to-page="true"
     labelstyle="default"
     inkscape:zoom="7.6597244"
     inkscape:cx="27.61196"
     inkscape:cy="28.982766"
     inkscape:window-width="1440"
     inkscape:window-height="847"
     inkscape:window-x="0"
     inkscape:window-y="25"
     inkscape:window-maximized="1"
     inkscape:current-layer="layer1"
     showgrid="true"
     guidecolor="#8800e5"
     guideopacity="0.6"
     showguides="true">
    <inkscape:grid
       id="grid1"
       units="px"
       originx="0"
       originy="0"
       spacingx="1"
       spacingy="1"
       empcolor="#0099e5"
       empopacity="0.30196078"
       color="#0099e5"
       opacity="0.14901961"
       empspacing="8"
       enabled="true"
       visible="true" />
    <sodipodi:guide
       position="2,48"
       orientation="1,0"
       id="guide1"
       inkscape:locked="false" />
    <sodipodi:guide
       position="0,46"
       orientation="0,-1"
       id="guide2"
       inkscape:locked="false" />
    <sodipodi:guide
       position="46,48"
       orientation="1,0"
       id="guide3"
       inkscape:locked="false" />
    <sodipodi:guide
       position="0,2"
       orientation="0,-1"
       id="guide4"
       inkscape:locked="false" />
    <sodipodi:guide
       position="24,48"
       orientation="1,0"
       id="guide5"
       inkscape:locked="false" />
    <sodipodi:guide
       position="0,24"
       orientation="0,-1"
       id="guide6"
       inkscape:locked="false" />
    <sodipodi:guide
       position="17,41"
       orientation="0,-1"
       id="guide7"
       inkscape:locked="false" />
    <sodipodi:guide
       position="16,7"
       orientation="0,-1"
       id="guide8"
       inkscape:locked="false" />
  </sodipodi:namedview>
  <defs
     id="defs1" />
  <g
     inkscape:label="Layer 1"
     inkscape:groupmode="layer"
     id="layer1">
    <path
       style="font-size:26.2117px;font-family:'Arial Black';-inkscape-font-specification:'Arial Black, Normal';stroke-width:4.00002;stroke-linecap:round;stroke-linejoin:round"
       d="m 42.141391,16.959336 -4.927492,-0.883109 q 0.614337,-2.354957 2.354957,-3.609228 1.75342,-1.254271 4.95309,-1.254271 3.673222,0 5.311453,1.369459 1.638231,1.369459 1.638231,3.442845 0,1.215875 -0.665531,2.201374 -0.665531,0.985498 -2.009393,1.727822 1.087888,0.268772 1.663829,0.627135 0.934303,0.575941 1.446251,1.523043 0.524746,0.934304 0.524746,2.23977 0,1.638231 -0.857512,3.148475 -0.857512,1.497446 -2.470146,2.316562 -1.612634,0.806317 -4.236363,0.806317 -2.559737,0 -4.044384,-0.601538 -1.471848,-0.601538 -2.431749,-1.75342 -0.947103,-1.16468 -1.45905,-2.918099 l 5.209063,-0.691129 q 0.307169,1.574238 0.947103,2.188575 0.652733,0.601538 1.65103,0.601538 1.049492,0 1.740621,-0.767921 0.703927,-0.767921 0.703927,-2.047789 0,-1.305466 -0.67833,-2.022192 -0.665532,-0.716726 -1.817413,-0.716726 -0.614337,0 -1.689426,0.307168 l 0.268772,-3.724416 q 0.435156,0.06399 0.678331,0.06399 1.023894,0 1.702224,-0.652733 0.691129,-0.652732 0.691129,-1.54864 0,-0.857512 -0.511947,-1.369459 -0.511948,-0.511947 -1.407855,-0.511947 -0.921505,0 -1.497446,0.563142 -0.575941,0.550343 -0.78072,1.945399 z"
       transform="scale(0.87733364,1.1398172)"
       id="path14" />
    <path
       style="font-size:26.2117px;font-family:'Arial Black';-inkscape-font-specification:'Arial Black, Normal';stroke-width:4.00002;stroke-linecap:round;stroke-linejoin:round"
       d="M 34.858941,30.295563 H 19.218952 q 0.268772,-2.316562 1.625432,-4.351552 1.369459,-2.047789 5.119473,-4.825103 2.290964,-1.702225 2.930898,-2.585334 0.639934,-0.883109 0.639934,-1.676627 0,-0.857512 -0.639934,-1.45905 -0.627135,-0.614337 -1.587036,-0.614337 -0.998297,0 -1.638232,0.627136 -0.627135,0.627135 -0.844713,2.214172 l -5.221862,-0.422357 q 0.307169,-2.201373 1.126284,-3.430047 0.819116,-1.241472 2.303763,-1.894204 1.497446,-0.665532 4.133974,-0.665532 2.751717,0 4.27476,0.627136 1.535842,0.627135 2.406152,1.9326 0.883109,1.292667 0.883109,2.905301 0,1.715024 -1.011096,3.276463 -0.998297,1.561439 -3.647624,3.430047 -1.574238,1.087888 -2.111783,1.523043 -0.524745,0.435155 -1.241472,1.139082 h 8.139962 z"
       transform="scale(0.87733364,1.1398172)"
       id="path13" />
    <path
       style="font-size:26.2117px;font-family:'Arial Black';-inkscape-font-specification:'Arial Black, Normal';stroke-width:4.00002;stroke-linecap:round;stroke-linejoin:round"
       d="M 13.933096,11.212728 V 30.295563 H 8.6600389 V 17.791251 Q 7.3801707,18.76395 6.1770946,19.365488 4.9868172,19.967026 3.182203,20.51737 V 16.24261 Q 5.8443289,15.385098 7.3161773,14.182022 8.7880257,12.978946 9.61994,11.212728 Z"
       transform="scale(0.87733364,1.1398172)"
       id="text1" />
  </g>
</svg>
