<?xml version="1.0" encoding="UTF-8" standalone="no"?>
<svg
   viewBox="0 0 48 48"
   version="1.1"
   id="svg2"
   sodipodi:docname="icon-setting.svg"
   inkscape:version="1.4.2 (ebf0e940, 2025-05-08)"
   xmlns:inkscape="http://www.inkscape.org/namespaces/inkscape"
   xmlns:sodipodi="http://sodipodi.sourceforge.net/DTD/sodipodi-0.dtd"
   xmlns="http://www.w3.org/2000/svg"
   xmlns:svg="http://www.w3.org/2000/svg">
  <defs
     id="defs2" />
  <sodipodi:namedview
     id="namedview2"
     pagecolor="#ffffff"
     bordercolor="#000000"
     borderopacity="0.25"
     inkscape:showpageshadow="2"
     inkscape:pageopacity="0.0"
     inkscape:pagecheckerboard="0"
     inkscape:deskcolor="#d1d1d1"
     showgrid="false"
     inkscape:zoom="7.0295102"
     inkscape:cx="17.213148"
     inkscape:cy="7.5396434"
     inkscape:window-width="1440"
     inkscape:window-height="847"
     inkscape:window-x="0"
     inkscape:window-y="25"
     inkscape:window-maximized="1"
     inkscape:current-layer="svg2"
     showguides="true" />
  <g
     fill="currentColor"
     id="g2"
     transform="matrix(0.82343013,0,0,0.82343013,4.0086133,7.2155037)"
     style="stroke-width:1.21443">
    <path
       d="M 0,0 H 48 V 48 H 0 Z"
       fill="none"
       id="path1"
       style="stroke-width:1.21443" />
    <path
       d="M 38.86,25.95 C 38.94,25.31 39,24.66 39,24 39,23.34 38.94,22.69 38.86,22.05 l 4.23,-3.31 c 0.38,-0.3 0.49,-0.84 0.24,-1.28 l -4,-6.93 C 39.08,10.1 38.56,9.92 38.11,10.1 l -4.98,2.01 C 32.1,11.32 30.97,10.65 29.75,10.14 L 29,4.84 C 28.91,4.37 28.5,4 28,4 h -8 c -0.5,0 -0.91,0.37 -0.99,0.84 l -0.75,5.3 c -1.22,0.51 -2.35,1.17 -3.38,1.97 L 9.9,10.1 c -0.45,-0.17 -0.97,0 -1.22,0.43 l -4,6.93 c -0.25,0.43 -0.14,0.97 0.24,1.28 l 4.22,3.31 C 9.06,22.69 9,23.34 9,24 c 0,0.66 0.06,1.31 0.14,1.95 l -4.22,3.31 c -0.38,0.3 -0.49,0.84 -0.24,1.28 l 4,6.93 c 0.25,0.43 0.77,0.61 1.22,0.43 l 4.98,-2.01 c 1.03,0.79 2.16,1.46 3.38,1.97 l 0.75,5.3 C 19.09,43.63 19.5,44 20,44 h 8 c 0.5,0 0.91,-0.37 0.99,-0.84 l 0.75,-5.3 c 1.22,-0.51 2.35,-1.17 3.38,-1.97 l 4.98,2.01 c 0.45,0.17 0.97,0 1.22,-0.43 l 4,-6.93 c 0.25,-0.43 0.14,-0.97 -0.24,-1.28 z M 24,31 c -3.87,0 -7,-3.13 -7,-7 0,-3.87 3.13,-7 7,-7 3.87,0 7,3.13 7,7 0,3.87 -3.13,7 -7,7 z"
       id="path2"
       style="stroke-width:1.21443" />
  </g>
</svg>
