<?xml version="1.0" encoding="UTF-8" standalone="no"?>
<!-- Created with Inkscape (http://www.inkscape.org/) -->

<svg
   width="32"
   height="32"
   viewBox="0 0 8.4666665 8.4666669"
   version="1.1"
   id="svg5"
   inkscape:version="1.4.2 (ebf0e940, 2025-05-08)"
   sodipodi:docname="icon-phone.svg"
   xmlns:inkscape="http://www.inkscape.org/namespaces/inkscape"
   xmlns:sodipodi="http://sodipodi.sourceforge.net/DTD/sodipodi-0.dtd"
   xmlns="http://www.w3.org/2000/svg"
   xmlns:svg="http://www.w3.org/2000/svg">
  <sodipodi:namedview
     id="namedview7"
     pagecolor="#ffffff"
     bordercolor="#666666"
     borderopacity="1.0"
     inkscape:pageshadow="2"
     inkscape:pageopacity="0.0"
     inkscape:pagecheckerboard="0"
     inkscape:document-units="mm"
     showgrid="false"
     units="px"
     width="32px"
     inkscape:zoom="10.325197"
     inkscape:cx="13.074812"
     inkscape:cy="31.379548"
     inkscape:window-width="1440"
     inkscape:window-height="847"
     inkscape:window-x="0"
     inkscape:window-y="25"
     inkscape:window-maximized="1"
     inkscape:current-layer="layer1"
     showguides="true"
     inkscape:guide-bbox="true"
     inkscape:snap-global="false"
     inkscape:showpageshadow="2"
     inkscape:deskcolor="#d1d1d1">
    <sodipodi:guide
       position="12.18846,7.9682725"
       orientation="0,-1"
       id="guide1253"
       inkscape:locked="false" />
    <sodipodi:guide
       position="10.624861,0.46701466"
       orientation="0,-1"
       id="guide1255"
       inkscape:locked="false" />
    <sodipodi:guide
       position="7.9996519,9.6035684"
       orientation="1,0"
       id="guide1259"
       inkscape:locked="false" />
    <sodipodi:guide
       position="0.49610244,10.657786"
       orientation="1,0"
       id="guide1261"
       inkscape:locked="false" />
  </sodipodi:namedview>
  <defs
     id="defs2" />
  <g
     inkscape:label="Layer 1"
     inkscape:groupmode="layer"
     id="layer1">
    <path
       id="rect2"
       style="stroke-width:1.32292;stroke-linecap:square"
       d="M 5.6534068,4.388782 3.1298327,4.391882 2.763289,5.3246416 1.8405549,5.3065546 0.51860679,7.2909296 H 7.8821523 L 6.5602042,5.3065555 H 5.8645679 Z M 4.3282714,5.0843468 A 1.2830767,0.83210307 0 0 1 5.6111746,5.9163374 1.2830767,0.83210307 0 0 1 4.3282714,6.7488447 1.2830767,0.83210307 0 0 1 3.0445715,5.9163374 1.2830767,0.83210307 0 0 1 4.3282714,5.0843468 Z" />
    <path
       id="path4"
       style="fill:#000000;stroke:none;stroke-width:1.32292;stroke-linecap:square;stroke-dasharray:none"
       d="M 4.7573634,1.8098676 C 3.9126378,1.6843028 2.6568455,1.7068058 2.241017,1.7681273 1.8251885,1.8294489 1.1300794,2.2490937 1.0441522,2.7526125 0.94037019,3.3617234 1.4110278,3.9356276 2.0953209,4.0343724 2.7793996,4.1330738 3.4179748,3.719532 3.5217482,3.1106171 3.5500668,2.9446204 3.5359189,2.7746758 3.4803593,2.6134572 c 0.7016144,-0.0399 1.465505,0.092515 2.3067491,0.440551 C 5.7240734,3.1618064 5.6813923,3.2782725 5.6607616,3.3987744 5.5569795,4.0078854 6.027637,4.5817896 6.7119303,4.6805343 7.3960089,4.7792353 8.0345841,4.3656939 8.1383574,3.756779 8.2333025,3.1997513 7.8466661,2.6627388 7.2371469,2.5050569 6.4275066,2.1735977 5.602089,1.9354326 4.7573634,1.8098676 Z"
       sodipodi:nodetypes="szcccccccccs" />
  </g>
</svg>
