<svg xmlns="http://www.w3.org/2000/svg" width="48" height="48" viewBox="0 0 48 48"><path d="M3 8h42v32H3z" style="fill:#fff;stroke:#000;stroke-width:2;stroke-linecap:round;stroke-linejoin:round"/><path d="m35.633 24.944 2.352-.314q.405 2 1.373 2.888.98.876 2.378.876 1.66 0 2.797-1.15 1.15-1.15 1.15-2.85 0-1.62-1.058-2.666-1.059-1.058-2.693-1.058-.666 0-1.66.261l.262-2.065q.235.026.379.026 1.503 0 2.705-.784t1.203-2.418q0-1.294-.876-2.143-.876-.85-2.261-.85-1.372 0-2.287.863-.915.862-1.177 2.588l-2.352-.419q.431-2.365 1.96-3.66 1.53-1.306 3.804-1.306 1.568 0 2.888.68 1.32.666 2.013 1.83.706 1.162.706 2.47 0 1.241-.667 2.26-.667 1.02-1.974 1.621 1.7.392 2.64 1.634.942 1.228.942 3.084 0 2.51-1.83 4.261-1.83 1.738-4.627 1.738-2.522 0-4.195-1.503-1.66-1.503-1.895-3.894" style="font-size:26.7668px;font-family:Arial;-inkscape-font-specification:&quot;Arial, Normal&quot;;stroke-width:2;stroke-linecap:round;stroke-linejoin:round" transform="scale(.84463 1.18395)"/><path d="M27.111 32.795v2.677H16.414q-.022-1.006.232-1.934.408-1.532 1.303-3.018.905-1.485 2.605-3.435 2.638-3.033 3.566-4.797.927-1.78.927-3.358 0-1.655-.85-2.785Q23.357 15 22 15q-1.435 0-2.296 1.207t-.872 3.342l-2.042-.294q.21-3.203 1.578-4.874 1.369-1.687 3.676-1.687 2.33 0 3.687 1.81 1.358 1.811 1.358 4.488 0 1.362-.397 2.677-.398 1.316-1.325 2.77-.916 1.455-3.058 3.992-1.788 2.105-2.296 2.863-.508.743-.839 1.501z" style="font-size:26.7668px;font-family:Arial;-inkscape-font-specification:&quot;Arial, Normal&quot;;stroke-width:2;stroke-linecap:round;stroke-linejoin:round"/><path d="M14.708 30.002h-2.353V15.01q-.85.81-2.234 1.62-1.373.81-2.47 1.216v-2.274q1.973-.928 3.45-2.248t2.09-2.562h1.517Z" style="font-size:26.7668px;font-family:Arial;-inkscape-font-specification:&quot;Arial, Normal&quot;;stroke-width:2;stroke-linecap:round;stroke-linejoin:round" transform="scale(.84463 1.18395)"/></svg>