<?xml version="1.0" encoding="UTF-8" standalone="no"?>
<!-- Created with Inkscape (http://www.inkscape.org/) -->

<svg
   width="32"
   height="32"
   viewBox="0 0 8.4666665 8.4666669"
   version="1.1"
   id="svg5"
   inkscape:version="1.4 (1:1.4+202410161351+e7c3feb100)"
   sodipodi:docname="icon-food.svg"
   xmlns:inkscape="http://www.inkscape.org/namespaces/inkscape"
   xmlns:sodipodi="http://sodipodi.sourceforge.net/DTD/sodipodi-0.dtd"
   xmlns="http://www.w3.org/2000/svg"
   xmlns:svg="http://www.w3.org/2000/svg">
  <sodipodi:namedview
     id="namedview7"
     pagecolor="#ffffff"
     bordercolor="#666666"
     borderopacity="1.0"
     inkscape:pageshadow="2"
     inkscape:pageopacity="0.0"
     inkscape:pagecheckerboard="0"
     inkscape:document-units="mm"
     showgrid="false"
     units="px"
     width="32px"
     inkscape:zoom="6.399888"
     inkscape:cx="20.547235"
     inkscape:cy="34.297475"
     inkscape:window-width="1920"
     inkscape:window-height="1011"
     inkscape:window-x="0"
     inkscape:window-y="0"
     inkscape:window-maximized="1"
     inkscape:current-layer="layer1"
     showguides="true"
     inkscape:guide-bbox="true"
     inkscape:showpageshadow="2"
     inkscape:deskcolor="#d1d1d1">
    <sodipodi:guide
       position="12.18846,7.9682725"
       orientation="0,-1"
       id="guide1253"
       inkscape:locked="false" />
    <sodipodi:guide
       position="10.624861,0.46701466"
       orientation="0,-1"
       id="guide1255"
       inkscape:locked="false" />
    <sodipodi:guide
       position="7.9996519,9.6035684"
       orientation="1,0"
       id="guide1259"
       inkscape:locked="false" />
    <sodipodi:guide
       position="0.49610244,10.657786"
       orientation="1,0"
       id="guide1261"
       inkscape:locked="false" />
  </sodipodi:namedview>
  <defs
     id="defs2" />
  <g
     inkscape:label="Layer 1"
     inkscape:groupmode="layer"
     id="layer1">
    <g
       id="g12"
       transform="matrix(0.01611473,0,0,0.01611473,0.18288316,0.37170202)"
       style="stroke-width:26.1653">
	<g
   id="g5"
   style="stroke-width:26.1653">
		<g
   id="g2"
   style="stroke-width:26.1653">
			<path
   d="m 46.175,156.04 c -5.523,0 -10,-4.477 -10,-10 v -13.247 c 0,-5.523 4.477,-10 10,-10 5.523,0 10,4.477 10,10 v 13.247 c 0,5.523 -4.477,10 -10,10 z"
   id="path1"
   style="stroke-width:26.1653" />

		</g>

		<g
   id="g3"
   style="stroke-width:26.1653">
			<path
   d="m 454.296,395.512 c -5.522,0 -10,-4.477 -10,-10 V 132.793 c 0,-5.523 4.478,-10 10,-10 5.522,0 10,4.477 10,10 v 252.719 c 0,5.523 -4.478,10 -10,10 z"
   id="path2"
   style="stroke-width:26.1653" />

		</g>

		<path
   d="m 82.351,120.755 c -5.523,0 -10,4.477 -10,10 v 57.065 c 0,12.193 -7.394,22.5 -16.176,22.604 v -34.833 c 0,-5.523 -4.477,-10 -10,-10 -5.523,0 -10,4.477 -10,10 v 34.833 C 27.393,210.32 20,200.013 20,187.82 v -57.065 c 0,-5.523 -4.477,-10 -10,-10 -5.523,0 -10,4.477 -10,10 v 57.065 c 0,23.442 16.216,42.519 36.175,42.605 v 155.086 c 0,5.523 4.477,10 10,10 5.523,0 10,-4.477 10,-10 V 230.425 C 76.134,230.34 92.351,211.262 92.351,187.82 v -57.065 c 0,-5.523 -4.477,-10 -10,-10 z"
   id="path3"
   style="stroke-width:26.1653" />

		<path
   style="fill:#ebd2b4;stroke-width:26.1653"
   d="M 492,293.799 H 454.296 V 132.793 l 2.666,3.746 C 479.753,168.57 492,206.906 492,246.219 Z"
   id="path4" />

		<path
   d="m 492,303.799 h -37.704 c -5.522,0 -10,-4.477 -10,-10 V 132.793 c 0,-4.351 2.813,-8.202 6.956,-9.525 4.144,-1.326 8.669,0.183 11.191,3.727 l 2.666,3.746 C 489.243,164.66 502,204.591 502,246.219 V 293.8 c 0,5.522 -4.478,9.999 -10,9.999 z m -27.704,-20 H 482 v -37.581 c 0,-27.212 -6.061,-53.621 -17.704,-77.731 z"
   id="path5"
   style="stroke-width:26.1653" />

	</g>

	<g
   id="g6"
   style="stroke-width:26.1653">
		<circle
   style="fill:#ebd2b4;stroke-width:26.1653"
   cx="264.24701"
   cy="251"
   r="153.873"
   id="circle5" />

		<path
   d="m 264.247,414.873 c -90.36,0 -163.873,-73.513 -163.873,-163.873 0,-90.36 73.513,-163.873 163.873,-163.873 90.36,0 163.873,73.513 163.873,163.873 0,90.36 -73.513,163.873 -163.873,163.873 z m 0,-307.746 c -79.332,0 -143.873,64.541 -143.873,143.873 0,79.332 64.541,143.873 143.873,143.873 79.332,0 143.873,-64.541 143.873,-143.873 0,-79.332 -64.541,-143.873 -143.873,-143.873 z"
   id="path6"
   style="stroke-width:26.1653" />

	</g>

	<g
   id="g9"
   style="stroke-width:26.1653">
		<g
   id="g8"
   style="stroke-width:26.1653">
			<path
   style="fill:#ff2e3d;stroke-width:26.1653"
   d="m 306.108,191.313 c -19.769,0 -36.388,13.463 -41.203,31.72 -4.815,-18.256 -21.434,-31.72 -41.203,-31.72 -23.535,0 -42.614,19.079 -42.614,42.614 0,23.535 25.972,44.598 42.614,61.24 20.743,20.743 41.203,39.51 41.203,39.51 0,0 21.589,-19.896 41.203,-39.51 16.642,-16.642 42.614,-37.705 42.614,-61.24 0,-23.535 -19.079,-42.614 -42.614,-42.614 z"
   id="path7" />

			<path
   d="m 264.905,344.677 c -2.424,0 -4.848,-0.876 -6.76,-2.63 -0.206,-0.189 -20.858,-19.152 -41.515,-39.808 -2.296,-2.296 -4.786,-4.689 -7.421,-7.223 -16.984,-16.325 -38.121,-36.642 -38.121,-61.089 0,-29.012 23.603,-52.614 52.614,-52.614 16.421,0 31.445,7.621 41.204,19.887 9.758,-12.266 24.781,-19.887 41.203,-19.887 29.011,0 52.613,23.603 52.613,52.614 0,24.448 -21.138,44.765 -38.121,61.089 -2.636,2.533 -5.125,4.926 -7.421,7.222 -19.533,19.532 -41.28,39.592 -41.497,39.792 -1.915,1.765 -4.346,2.647 -6.778,2.647 z M 223.702,201.313 c -17.983,0 -32.614,14.631 -32.614,32.614 0,15.93 17.732,32.975 31.981,46.669 2.709,2.604 5.268,5.063 7.704,7.5 13.212,13.212 26.427,25.725 34.123,32.924 7.901,-7.403 21.501,-20.284 34.142,-32.925 2.437,-2.436 4.995,-4.895 7.704,-7.499 14.248,-13.695 31.98,-30.739 31.98,-46.67 0,-17.983 -14.63,-32.614 -32.613,-32.614 -14.798,0 -27.766,9.98 -31.534,24.27 -1.157,4.391 -5.128,7.45 -9.669,7.45 -4.54,0 -8.511,-3.059 -9.669,-7.45 -3.77,-14.289 -16.737,-24.269 -31.535,-24.269 z"
   id="path8"
   style="stroke-width:26.1653" />

		</g>

	</g>

	<g
   id="g10"
   style="stroke-width:26.1653">
		<path
   d="m 217.376,150.236 c -3.895,0 -7.597,-2.289 -9.212,-6.101 -2.155,-5.085 0.221,-10.954 5.306,-13.109 16.085,-6.816 33.169,-10.271 50.776,-10.271 14.756,0 29.239,2.451 43.046,7.284 5.213,1.825 7.959,7.53 6.135,12.743 -1.825,5.213 -7.532,7.96 -12.742,6.134 -11.679,-4.088 -23.938,-6.161 -36.438,-6.161 -14.912,0 -29.37,2.922 -42.974,8.687 -1.273,0.539 -2.596,0.794 -3.897,0.794 z"
   id="path9"
   style="stroke-width:26.1653" />

	</g>

	<g
   id="g11"
   style="stroke-width:26.1653">
		<path
   d="m 168.451,188.303 c -2.109,0 -4.235,-0.665 -6.044,-2.039 -4.397,-3.342 -5.252,-9.616 -1.91,-14.013 5.229,-6.878 11.168,-13.265 17.653,-18.982 4.143,-3.652 10.462,-3.254 14.114,0.888 3.652,4.143 3.255,10.462 -0.888,14.114 -5.495,4.845 -10.527,10.255 -14.956,16.083 -1.967,2.588 -4.951,3.949 -7.969,3.949 z"
   id="path10"
   style="stroke-width:26.1653" />

	</g>

</g>
  </g>
</svg>
