<svg xmlns="http://www.w3.org/2000/svg" width="48" height="48" viewBox="0 0 48 48"><path d="M3 8h42v32H3z" style="fill:#fff;stroke:#000;stroke-width:2;stroke-linecap:round;stroke-linejoin:round"/><g style="stroke-width:1.20933"><path d="M25.87 12.666V39.14h3.043l.207-.886q1.194.647 2.423 1.023 1.228.39 2.87.39 1.764 0 3.233-.664 1.47-.681 2.698-2.025 1.159-1.292 1.833-3.198.692-1.904.693-4.286 0-4.713-1.99-7.3-1.971-2.586-5.396-2.586-1.92 0-3.458.715a13.4 13.4 0 0 0-2.906 1.803v-9.459zm8.82 9.986q2.542 0 3.683 1.77 1.14 1.752 1.14 5.155 0 3.726-1.538 5.478-1.521 1.735-4.219 1.735-1.263 0-2.266-.237-.986-.24-2.37-.852V24.814a11.8 11.8 0 0 1 2.698-1.548q1.453-.613 2.871-.614M14.414 19.701a22.6 22.6 0 0 0-3.672.306q-1.863.307-2.848.562v3.252h.178q1.738-.63 3.368-.954 1.63-.34 2.957-.34 1.093 0 2.097.136 1.002.137 1.717.528.753.408 1.148 1.123.413.715.413 1.804v.494a93 93 0 0 0-5.5.408q-2.563.273-4.39 1.04-1.81.765-2.795 2.11-.967 1.328-.967 3.489Q6.12 36.298 8 38q1.882 1.702 4.587 1.701 1.47 0 2.561-.271a10 10 0 0 0 1.935-.649 8.8 8.8 0 0 0 1.47-.815q.77-.528 1.219-.818v2.026h3.348V26.27q.001-1.838-.59-3.08a5.1 5.1 0 0 0-1.72-2.026q-1.145-.8-2.722-1.123-1.56-.34-3.674-.34m5.358 9.498v5.293a15 15 0 0 1-2.725 1.583q-1.47.647-3.242.648-2.132 0-3.172-.817-1.038-.835-1.039-2.469 0-1.446.897-2.263.896-.834 2.348-1.226 1.218-.324 3.295-.493a144 144 0 0 1 3.638-.256" style="font-size:33.7393px;font-family:Sans;-inkscape-font-specification:&quot;Sans, Normal&quot;;stroke-width:2.41864;stroke-linecap:round;stroke-linejoin:round" transform="matrix(.90413 0 0 .75628 1.466 4.42)"/></g></svg>